<svg xmlns="http://www.w3.org/2000/svg" width="720" height="420" viewBox="0 0 720 420">
  <defs>
    <linearGradient id="bg" x1="0" y1="0" x2="1" y2="1">
      <stop offset="0" stop-color="#ecfdf5"/>
      <stop offset="1" stop-color="#d1fae5"/>
    </linearGradient>
    <linearGradient id="bar" x1="0" y1="0" x2="0" y2="1">
      <stop offset="0" stop-color="#22c55e"/>
      <stop offset="1" stop-color="#16a34a"/>
    </linearGradient>
    <filter id="shadow" x="-20%" y="-20%" width="140%" height="140%">
      <feDropShadow dx="0" dy="10" stdDeviation="12" flood-color="#0f172a" flood-opacity="0.08"/>
    </filter>
  </defs>

  <rect x="0" y="0" width="720" height="420" rx="24" fill="#ffffff"/>
  <g transform="translate(36 36)">
    <text x="0" y="18" font-family="ui-sans-serif, system-ui, -apple-system" font-size="18" font-weight="600" fill="#0f172a">Graphique</text>

    <g transform="translate(0 44)" filter="url(#shadow)">
      <rect x="0" y="0" width="648" height="312" rx="18" fill="url(#bg)" stroke="#bbf7d0"/>
      <g transform="translate(38 34)">
        <g fill="url(#bar)">
          <rect x="0" y="178" width="34" height="66" rx="10"/>
          <rect x="50" y="122" width="34" height="122" rx="10"/>
          <rect x="100" y="156" width="34" height="88" rx="10"/>
          <rect x="150" y="82" width="34" height="162" rx="10"/>
          <rect x="200" y="138" width="34" height="106" rx="10"/>
          <rect x="250" y="58" width="34" height="186" rx="10"/>
          <rect x="300" y="164" width="34" height="80" rx="10"/>
          <rect x="350" y="96" width="34" height="148" rx="10"/>
          <rect x="400" y="136" width="34" height="108" rx="10"/>
          <rect x="450" y="70" width="34" height="174" rx="10"/>
          <rect x="500" y="152" width="34" height="92" rx="10"/>
          <rect x="550" y="110" width="34" height="134" rx="10"/>
        </g>
      </g>
    </g>
  </g>
</svg>
