<svg xmlns="http://www.w3.org/2000/svg" width="720" height="420" viewBox="0 0 720 420">
  <defs>
    <filter id="shadow" x="-20%" y="-20%" width="140%" height="140%">
      <feDropShadow dx="0" dy="10" stdDeviation="12" flood-color="#0f172a" flood-opacity="0.08"/>
    </filter>
  </defs>
  <rect x="0" y="0" width="720" height="420" rx="24" fill="#ffffff"/>
  <g transform="translate(36 36)">
    <text x="0" y="18" font-family="ui-sans-serif, system-ui, -apple-system" font-size="18" font-weight="600" fill="#0f172a">Matrice de confusion</text>

    <g transform="translate(0 44)" filter="url(#shadow)">
      <rect x="0" y="0" width="648" height="312" rx="18" fill="#ffffff" stroke="#e2e8f0"/>

      <!-- 3x3 grid -->
      <g transform="translate(84 44)">
        <rect x="0" y="0" width="140" height="140" rx="16" fill="#16a34a"/>
        <rect x="160" y="0" width="140" height="140" rx="16" fill="#f1f5f9"/>
        <rect x="320" y="0" width="140" height="140" rx="16" fill="#f1f5f9"/>

        <rect x="0" y="160" width="140" height="140" rx="16" fill="#f1f5f9"/>
        <rect x="160" y="160" width="140" height="140" rx="16" fill="#16a34a"/>
        <rect x="320" y="160" width="140" height="140" rx="16" fill="#bbf7d0"/>

        <rect x="0" y="320" width="140" height="140" rx="16" fill="#f1f5f9"/>
        <rect x="160" y="320" width="140" height="140" rx="16" fill="#f1f5f9"/>
        <rect x="320" y="320" width="140" height="140" rx="16" fill="#16a34a"/>

        <!-- values -->
        <g font-family="ui-sans-serif, system-ui, -apple-system" font-size="28" font-weight="700" text-anchor="middle">
          <text x="70" y="88" fill="#ffffff">10</text>
          <text x="230" y="88" fill="#94a3b8">0</text>
          <text x="390" y="88" fill="#94a3b8">0</text>

          <text x="70" y="248" fill="#94a3b8">0</text>
          <text x="230" y="248" fill="#ffffff">9</text>
          <text x="390" y="248" fill="#14532d">1</text>

          <text x="70" y="408" fill="#94a3b8">0</text>
          <text x="230" y="408" fill="#94a3b8">0</text>
          <text x="390" y="408" fill="#ffffff">10</text>
        </g>
      </g>

      <!-- axis labels -->
      <text x="324" y="292" font-family="ui-sans-serif, system-ui, -apple-system" font-size="12" fill="#64748b" text-anchor="middle">classe prédite</text>
      <text x="24" y="156" font-family="ui-sans-serif, system-ui, -apple-system" font-size="12" fill="#64748b" text-anchor="middle" transform="rotate(-90 24 156)">vraie classe</text>
    </g>
  </g>
</svg>
