<svg xmlns="http://www.w3.org/2000/svg" width="720" height="420" viewBox="0 0 720 420">
  <defs>
    <linearGradient id="g" x1="0" y1="0" x2="0" y2="1">
      <stop offset="0" stop-color="#4ade80"/>
      <stop offset="1" stop-color="#16a34a"/>
    </linearGradient>
    <filter id="shadow" x="-20%" y="-20%" width="140%" height="140%">
      <feDropShadow dx="0" dy="10" stdDeviation="12" flood-color="#0f172a" flood-opacity="0.08"/>
    </filter>
  </defs>

  <rect x="0" y="0" width="720" height="420" rx="24" fill="#ffffff"/>
  <g transform="translate(36 36)">
    <text x="0" y="18" font-family="ui-sans-serif, system-ui, -apple-system" font-size="18" font-weight="600" fill="#0f172a">Distribution des features</text>

    <g transform="translate(0 36)">
      <!-- 4 mini-charts -->
      <g filter="url(#shadow)">
        <rect x="0" y="0" width="312" height="140" rx="16" fill="#f8fafc" stroke="#e2e8f0"/>
        <rect x="336" y="0" width="312" height="140" rx="16" fill="#f8fafc" stroke="#e2e8f0"/>
        <rect x="0" y="164" width="312" height="140" rx="16" fill="#f8fafc" stroke="#e2e8f0"/>
        <rect x="336" y="164" width="312" height="140" rx="16" fill="#f8fafc" stroke="#e2e8f0"/>
      </g>

      <!-- bars (static, deterministic) -->
      <g fill="url(#g)">
        <!-- chart 1 -->
        <rect x="20" y="108" width="18" height="20" rx="6"/>
        <rect x="44" y="78" width="18" height="50" rx="6"/>
        <rect x="68" y="54" width="18" height="74" rx="6"/>
        <rect x="92" y="36" width="18" height="92" rx="6"/>
        <rect x="116" y="60" width="18" height="68" rx="6"/>
        <rect x="140" y="82" width="18" height="46" rx="6"/>
        <rect x="164" y="96" width="18" height="32" rx="6"/>
        <rect x="188" y="40" width="18" height="88" rx="6"/>
        <rect x="212" y="52" width="18" height="76" rx="6"/>

        <!-- chart 2 -->
        <rect x="356" y="82" width="18" height="46" rx="6"/>
        <rect x="380" y="98" width="18" height="30" rx="6"/>
        <rect x="404" y="66" width="18" height="62" rx="6"/>
        <rect x="428" y="28" width="18" height="100" rx="6"/>
        <rect x="452" y="106" width="18" height="22" rx="6"/>
        <rect x="476" y="118" width="18" height="10" rx="6"/>
        <rect x="500" y="90" width="18" height="38" rx="6"/>
        <rect x="524" y="56" width="18" height="72" rx="6"/>
        <rect x="548" y="70" width="18" height="58" rx="6"/>

        <!-- chart 3 -->
        <rect x="20" y="248" width="18" height="56" rx="6"/>
        <rect x="44" y="292" width="18" height="12" rx="6"/>
        <rect x="68" y="270" width="18" height="34" rx="6"/>
        <rect x="92" y="224" width="18" height="80" rx="6"/>
        <rect x="116" y="238" width="18" height="66" rx="6"/>
        <rect x="140" y="260" width="18" height="44" rx="6"/>
        <rect x="164" y="286" width="18" height="18" rx="6"/>
        <rect x="188" y="206" width="18" height="98" rx="6"/>
        <rect x="212" y="214" width="18" height="90" rx="6"/>

        <!-- chart 4 -->
        <rect x="356" y="224" width="18" height="80" rx="6"/>
        <rect x="380" y="252" width="18" height="52" rx="6"/>
        <rect x="404" y="202" width="18" height="102" rx="6"/>
        <rect x="428" y="292" width="18" height="12" rx="6"/>
        <rect x="452" y="300" width="18" height="4" rx="6"/>
        <rect x="476" y="240" width="18" height="64" rx="6"/>
        <rect x="500" y="262" width="18" height="42" rx="6"/>
        <rect x="524" y="286" width="18" height="18" rx="6"/>
        <rect x="548" y="260" width="18" height="44" rx="6"/>
      </g>
    </g>
  </g>
</svg>
