<svg xmlns="http://www.w3.org/2000/svg" width="720" height="420" viewBox="0 0 720 420">
  <defs>
    <linearGradient id="g" x1="0" y1="0" x2="1" y2="0">
      <stop offset="0" stop-color="#22c55e"/>
      <stop offset="1" stop-color="#16a34a"/>
    </linearGradient>
    <filter id="shadow" x="-20%" y="-20%" width="140%" height="140%">
      <feDropShadow dx="0" dy="10" stdDeviation="12" flood-color="#0f172a" flood-opacity="0.08"/>
    </filter>
  </defs>

  <rect x="0" y="0" width="720" height="420" rx="24" fill="#ffffff"/>
  <g transform="translate(36 36)">
    <text x="0" y="18" font-family="ui-sans-serif, system-ui, -apple-system" font-size="18" font-weight="600" fill="#0f172a">Importance des features</text>

    <g transform="translate(0 44)" filter="url(#shadow)">
      <rect x="0" y="0" width="648" height="312" rx="18" fill="#ffffff" stroke="#e2e8f0"/>
      <g transform="translate(32 34)" font-family="ui-sans-serif, system-ui, -apple-system" font-size="14" fill="#0f172a">
        <g transform="translate(0 0)">
          <text x="0" y="16" fill="#334155">petal length</text>
          <rect x="160" y="4" width="420" height="16" rx="8" fill="#f1f5f9"/>
          <rect x="160" y="4" width="360" height="16" rx="8" fill="url(#g)"/>
          <text x="600" y="16" text-anchor="end" fill="#64748b">0.45</text>
        </g>

        <g transform="translate(0 56)">
          <text x="0" y="16" fill="#334155">petal width</text>
          <rect x="160" y="4" width="420" height="16" rx="8" fill="#f1f5f9"/>
          <rect x="160" y="4" width="304" height="16" rx="8" fill="url(#g)"/>
          <text x="600" y="16" text-anchor="end" fill="#64748b">0.38</text>
        </g>

        <g transform="translate(0 112)">
          <text x="0" y="16" fill="#334155">sepal length</text>
          <rect x="160" y="4" width="420" height="16" rx="8" fill="#f1f5f9"/>
          <rect x="160" y="4" width="96" height="16" rx="8" fill="url(#g)"/>
          <text x="600" y="16" text-anchor="end" fill="#64748b">0.12</text>
        </g>

        <g transform="translate(0 168)">
          <text x="0" y="16" fill="#334155">sepal width</text>
          <rect x="160" y="4" width="420" height="16" rx="8" fill="#f1f5f9"/>
          <rect x="160" y="4" width="40" height="16" rx="8" fill="url(#g)"/>
          <text x="600" y="16" text-anchor="end" fill="#64748b">0.05</text>
        </g>
      </g>
    </g>
  </g>
</svg>
